<?xml version="1.0" encoding="utf-8"?>
<!-- Generator: Adobe Illustrator 24.1.1, SVG Export Plug-In . SVG Version: 6.00 Build 0)  -->
<svg version="1.1" id="Calque_1" xmlns="http://www.w3.org/2000/svg" xmlns:xlink="http://www.w3.org/1999/xlink" x="0px" y="0px"
	 viewBox="0 0 163.4 139.6" style="enable-background:new 0 0 163.4 139.6;" xml:space="preserve">
<style type="text/css">
	.st0{fill:#FFFFFF;stroke:#FFFFFF;stroke-miterlimit:10;}
	.st1{fill:#FFFFFF;}
	.st2{fill:none;}
</style>
<g>
	<line class="st0" x1="80.8" y1="44.7" x2="80.8" y2="99.6"/>
	<path class="st1" d="M153.9,84.6c-3.2-4.1-8.3-7.4-15.2-9.9c8.7-5,13-11.6,13-19.7c0-6.4-2.6-12-7.8-16.8s-11.9-7.2-20.1-7.2H82.1
		c-1.6,0-2.7,0.3-3.4,0.9c-0.7,0.6-1.1,1.5-1,2.4c-0.1,0.9,0.3,1.8,1,2.4c0.7,0.6,1.8,0.9,3.4,0.9H91v79.1l-8.9,0.1
		c-1.6,0-2.7,0.3-3.4,0.9c-0.7,0.6-1.1,1.5-1,2.4c-0.1,0.9,0.3,1.8,1,2.4c0.7,0.6,1.8,1,3.4,1h49.6c5,0.1,9.9-1.3,14.2-3.9
		c4.3-2.5,7.5-5.7,9.6-9.3c2.1-3.7,3.2-7.9,3.2-12.1C158.7,93.3,157,88.4,153.9,84.6z M97.7,37.8H124c6.3,0,11.3,1.7,15.2,5.2
		c3.9,3.5,5.8,7.4,5.8,11.5c-0.1,3-1,6-2.7,8.5c-1.9,2.8-4.5,5-7.5,6.4c-4.3,1.9-9,2.8-13.7,2.8h-6.8v2.2H99.5v-2.2h-1.7V37.8z
		 M149.5,107c-1.7,2.9-4.2,5.3-7.2,7c-3.2,1.9-6.9,2.9-11.1,2.9H97.7l-0.1-38h18v-2.3h14.9v2.8c3.2,0.4,5.9,1,8.2,1.9
		c3.9,1.4,7.3,3.9,9.8,7.2c2.3,3.2,3.5,6.4,3.5,9.8C152,101.4,151.1,104.4,149.5,107z"/>
	<path class="st2" d="M62.2,31.2h3.5v-4.6H41.7c-5.6,0-10.8,1.8-15.7,5.5c-4.7,3.4-8.4,7.9-11,13c-2.3,4.7-3.6,9.8-3.7,15.1v12
		c-0.1,3.8,0.6,7.5,2,11c2,4.8,4.7,9.3,8.1,13.3c1.9,2.3,4.7,4.5,8.4,6.4c3.7,1.9,7.8,2.9,11.9,2.9h24.1v-55h-3.5V31.2z"/>
	<path class="st1" d="M72.3,56.4V26.6H78c1.6,0,2.7-0.3,3.4-0.9c0.7-0.6,1.1-1.5,1-2.4c0.1-0.9-0.3-1.8-1-2.4c-0.7-0.6-1.8-1-3.4-1
		H42.3c-6.8,0-12.9,1.7-18.1,5.2c-7,4.7-12,10.3-15,16.6c-3,6.2-4.5,12.9-4.5,19.7v9.2c0,5.5,0.7,10.3,2.3,14.4
		c2.3,5.8,5.5,11.1,9.5,15.9c2.4,3,5.9,5.6,10.6,7.9c4.7,2.4,10,3.6,15.3,3.5h35.6c1.6,0,2.7-0.3,3.4-0.9c0.1-0.1,0.1-0.1,0.1-0.1
		c1.3-1.3,1.2-3.4-0.1-4.7c-0.7-0.6-1.8-0.9-3.4-0.9h-5.6V75.9h-2.9V56.4H72.3z M69.2,50.6h-3.5v29.6h3.5v19.4h-3.5v6H41.7
		c-4.1,0.1-8.3-1-11.9-2.9c-3.7-1.9-6.5-4-8.4-6.4c-3.3-4-6.1-8.5-8.1-13.3c-1.4-3.5-2-7.2-2-11v-12c0.1-5.2,1.3-10.4,3.7-15.1
		c2.5-5.1,6.3-9.6,11-13c4.9-3.7,10.1-5.5,15.7-5.5h24.1v4.6h3.5V50.6z"/>
</g>
</svg>
