<svg id="Calque_1" data-name="Calque 1" xmlns="http://www.w3.org/2000/svg" xmlns:xlink="http://www.w3.org/1999/xlink" viewBox="0 0 374.22 249.61"><defs><style>.cls-1,.cls-3{fill:#699bb5;}.cls-1{stroke:#699bb5;}.cls-1,.cls-5{stroke-miterlimit:10;}.cls-2,.cls-4{isolation:isolate;}.cls-2{font-size:25px;fill:#818384;font-family:Microsoft-Yi-Baiti, Microsoft Yi Baiti;font-style:italic;}.cls-4{font-size:31px;font-family:FranklinGothic-Medium, Franklin Gothic Medium;font-weight:500;}.cls-4,.cls-5{fill:#fff;}.cls-5{stroke:#fff;}.cls-6{fill:url(#Dégradé_sans_nom_17);}.cls-7{fill:none;}.cls-8{fill:url(#Dégradé_sans_nom_13);}</style><linearGradient id="Dégradé_sans_nom_17" x1="327.03" y1="219.82" x2="96.35" y2="50.14" gradientUnits="userSpaceOnUse"><stop offset="0" stop-color="#699bb5"/><stop offset="1"/></linearGradient><linearGradient id="Dégradé_sans_nom_13" x1="36.22" y1="43.1" x2="295.33" y2="273.32" xlink:href="#Dégradé_sans_nom_17"/></defs><line class="cls-1" x1="334.32" y1="36.63" x2="196.42" y2="36.63"/><text class="cls-2" transform="translate(192.02 55.17)"><tspan xml:space="preserve">DEVELOPPEUR  </tspan></text><line class="cls-1" x1="182.06" y1="88.28" x2="182.06" y2="191.89"/><rect class="cls-3" x="324.86" y="60.34" width="34.66" height="73.63"/><text class="cls-4" transform="translate(331.74 65.53) rotate(90)">WEB</text><rect class="cls-3" x="339.52" y="41.65" width="10.85" height="10.85"/><path class="cls-5" d="M340.36,42.51h1.83a0,0,0,0,1,0,0v0a1.83,1.83,0,0,1-1.83,1.83h0a0,0,0,0,1,0,0V42.51A0,0,0,0,1,340.36,42.51Z"/><path class="cls-6" d="M319.88,163.58c-6.1-7.7-15.6-13.9-28.6-18.6,16.4-9.5,24.6-21.8,24.6-37.1,0-12.1-4.9-22.6-14.7-31.6s-22.4-13.5-38-13.5h-78.6c-3,0-5.1.6-6.4,1.7a6.28,6.28,0,0,0,0,9c1.3,1.1,3.4,1.7,6.4,1.7h16.8v149.2l-16.8.1c-3,0-5.1.6-6.4,1.7a6.28,6.28,0,0,0,0,9c1.3,1.2,3.4,1.8,6.4,1.8h93.5a51.33,51.33,0,0,0,26.7-7.3c8.1-4.8,14.2-10.7,18.2-17.6a45.06,45.06,0,0,0,6-22.9A40.46,40.46,0,0,0,319.88,163.58ZM214,75.18h49.6c11.8,0,21.4,3.3,28.7,9.9s11,13.9,11,21.7a29.47,29.47,0,0,1-5.1,16,33.37,33.37,0,0,1-14.2,12.1,64.12,64.12,0,0,1-25.9,5.2H245.32v4.08H217.26v-4.08H214Zm97.7,130.6a37.14,37.14,0,0,1-13.5,13.2,40,40,0,0,1-21,5.4h-63.3l-.1-71.7h34v-4.35h28.07v5.31a63.39,63.39,0,0,1,15.41,3.64,40.84,40.84,0,0,1,18.4,13.6c4.4,6,6.6,12.1,6.6,18.5A31.47,31.47,0,0,1,311.68,205.78Z"/><path class="cls-7" d="M147,62.78h6.65V54.15h-45.4c-10.6,0-20.4,3.4-29.6,10.3a67.42,67.42,0,0,0-20.7,24.6,65,65,0,0,0-6.9,28.4v22.6a54.19,54.19,0,0,0,3.7,20.7,94.59,94.59,0,0,0,15.2,25.1c3.6,4.4,8.8,8.4,15.8,12a47.58,47.58,0,0,0,22.5,5.4h45.4V99.45H147Z"/><path class="cls-8" d="M166.13,110.37V54.15h10.6c3,0,5.1-.6,6.4-1.7A5.51,5.51,0,0,0,185,48a5.51,5.51,0,0,0-1.9-4.5c-1.3-1.2-3.4-1.8-6.4-1.8h-67.3c-12.9,0-24.3,3.2-34.1,9.8-13.2,8.9-22.6,19.4-28.3,31.4a85.51,85.51,0,0,0-8.5,37.2v17.3c0,10.4,1.4,19.5,4.3,27.1a105.63,105.63,0,0,0,17.9,29.9c4.6,5.6,11.2,10.5,19.9,14.9a62.42,62.42,0,0,0,28.8,6.6h67.2c3,0,5.1-.6,6.4-1.7l.2-.2a6.31,6.31,0,0,0-.2-8.9c-1.3-1.1-3.4-1.7-6.4-1.7h-10.5V147H160.6V110.37Zm-5.85-10.92h-6.65v55.78h6.65v36.66h-6.65v11.36h-45.4a47.58,47.58,0,0,1-22.5-5.4c-7-3.6-12.2-7.6-15.8-12a94.59,94.59,0,0,1-15.2-25.1,54.19,54.19,0,0,1-3.7-20.7v-22.6a65,65,0,0,1,6.9-28.4,67.42,67.42,0,0,1,20.7-24.6c9.2-6.9,19-10.3,29.6-10.3h45.4v8.63h6.65Z"/></svg>