<?xml version="1.0" encoding="utf-8"?>
<!-- Generator: Adobe Illustrator 24.1.1, SVG Export Plug-In . SVG Version: 6.00 Build 0)  -->
<svg version="1.1" id="Calque_1" xmlns="http://www.w3.org/2000/svg" xmlns:xlink="http://www.w3.org/1999/xlink" x="0px" y="0px"
	 viewBox="0 0 318 197" style="enable-background:new 0 0 318 197;" xml:space="preserve">
<style type="text/css">
	.st0{fill:#FFFFFF;}
	.st1{fill:none;stroke:#FFFFFF;stroke-width:4;stroke-miterlimit:10;}
</style>
<path class="st0" d="M139.5,24.4v149.2H150c3,0,5.1,0.6,6.4,1.7c2.5,2.4,2.6,6.4,0.2,8.9c-0.1,0.1-0.1,0.1-0.2,0.2
	c-1.3,1.1-3.4,1.7-6.4,1.7H82.8c-10,0.1-19.9-2.1-28.8-6.6c-8.7-4.4-15.3-9.3-19.9-14.9c-7.6-8.9-13.6-19-17.9-29.9
	c-2.9-7.6-4.3-16.7-4.3-27.1V90.3c0-12.9,2.9-25.6,8.5-37.2c5.7-12,15.1-22.5,28.3-31.4c9.8-6.6,21.2-9.8,34.1-9.8h67.3
	c3,0,5.1,0.6,6.4,1.8c1.3,1.1,2,2.8,1.9,4.5c0.1,1.7-0.6,3.4-1.9,4.5c-1.3,1.1-3.4,1.7-6.4,1.7L139.5,24.4z M127,24.4H81.6
	C71,24.4,61.2,27.8,52,34.7c-8.8,6.4-15.9,14.9-20.7,24.6c-4.4,8.8-6.8,18.5-6.9,28.4v22.6c-0.1,7.1,1.1,14.1,3.7,20.7
	c3.7,9.1,8.9,17.6,15.2,25.1c3.6,4.4,8.8,8.4,15.8,12c6.9,3.6,14.7,5.5,22.5,5.4H127L127,24.4z"/>
<path class="st0" d="M190.4,173.6V24.4h-16.8c-3,0-5.1-0.6-6.4-1.7c-1.3-1.1-2-2.8-1.9-4.5c-0.1-1.7,0.6-3.4,1.9-4.5
	c1.3-1.1,3.4-1.7,6.4-1.7h78.6c15.6,0,28.2,4.5,38,13.5s14.7,19.5,14.7,31.6c0,15.3-8.2,27.6-24.6,37.1c13,4.7,22.5,10.9,28.6,18.6
	c5.9,7.2,9.1,16.3,9.1,25.6c0.1,8-2,15.9-6,22.9c-4,6.9-10.1,12.8-18.2,17.6c-8.1,4.8-17.3,7.4-26.7,7.3h-93.5c-3,0-5.1-0.6-6.4-1.8
	c-1.3-1.1-2-2.8-1.9-4.5c-0.1-1.7,0.6-3.4,1.9-4.5c1.3-1.1,3.4-1.7,6.4-1.7L190.4,173.6z M202.9,89.3h44.2
	c8.9,0.1,17.7-1.7,25.9-5.2c5.8-2.6,10.7-6.8,14.2-12.1c3.2-4.7,5-10.3,5.1-16c0-7.8-3.7-15.1-11-21.7s-16.9-9.9-28.7-9.9h-49.6
	V89.3z M202.9,173.6h63.3c8,0,15-1.8,21-5.4c5.6-3.2,10.2-7.7,13.5-13.2c3-4.9,4.6-10.6,4.6-16.4c0-6.4-2.2-12.5-6.6-18.5
	c-4.7-6.2-11.1-10.9-18.4-13.6c-7.8-3.1-18.7-4.6-32.5-4.6h-45L202.9,173.6z"/>
<line class="st1" x1="162" y1="50.8" x2="162" y2="152.5"/>
</svg>
