<?xml version="1.0" encoding="utf-8"?>
<!-- Generator: Adobe Illustrator 24.1.1, SVG Export Plug-In . SVG Version: 6.00 Build 0)  -->
<svg version="1.1" id="Capa_1" xmlns="http://www.w3.org/2000/svg" xmlns:xlink="http://www.w3.org/1999/xlink" x="0px" y="0px"
	 viewBox="0 0 588.6 588.6" style="enable-background:new 0 0 588.6 588.6;" xml:space="preserve">
<style type="text/css">
	.st0{fill:#FFFFFF;}
</style>
<g>
	<path class="st0" d="M539.6,49.2H361.4c-0.8,0-1.6,0.1-2.4,0.1V0L11.2,46.4V541L359,588.6v-50.8c0.8,0.1,1.6,0.1,2.4,0.1h178.2
		c20.8,0,37.8-17,37.8-37.8V87C577.4,66.2,560.4,49.2,539.6,49.2z M149.5,306.2c0,37.1-16.9,49.6-43.7,48.8
		c-6.3-0.2-14.4-1.5-19.7-3.5l3-23.1c3.7,1.4,8.5,2.4,13.9,2.5c11.5,0.2,18.7-5.2,18.7-25.3v-80.9l27.9-0.7L149.5,306.2L149.5,306.2
		z M204.8,357.5c-14.8-0.4-29.2-4.7-36.4-8.9l5.8-24.4c7.8,4.2,19.8,8.5,32.3,8.7c13.6,0.2,20.9-5.4,20.9-14.2c0-8.4-6.3-13.2-22-19
		c-21.5-7.7-35.3-19.8-35.3-38.9c0-22.4,18.2-40,48.9-40.8c14.9-0.4,26.1,2.5,34.1,5.9l-6.8,24.8c-5.4-2.5-14.9-6.2-27.9-5.9
		c-12.8,0.2-19,6.2-19,13.1c0,8.5,7.4,12.2,24.3,18.6c23.6,8.7,34.8,21.2,34.8,40.3C258.5,339.6,241.1,358.4,204.8,357.5z
		 M555.8,500.1c0,8.9-7.3,16.2-16.2,16.2H361.4c-0.8,0-1.6-0.1-2.4-0.2v-50.6c4.8,9.3,13,16.3,22.8,19.6c10.5,3.5,24.1,3.2,34-0.8
		c11.9-4.8,18.9-14.8,20.7-29.6c0.2-1.5,0.3-18.2,0.3-49.7v-47.4h-13.1h-13.1l-0.1,47.3l-0.1,47.3l-0.6,2.2
		c-0.8,2.9-1.7,4.7-3.3,6.3c-2.3,2.2-5.1,3.2-10,3.2c-6.9,0-11-2.9-15.8-11.1c-0.8-1.3-1.5-2.3-1.6-2.3c-0.1,0.1-4.9,3-10.8,6.5
		l-9.5,5.8V71c0.8-0.1,1.5-0.2,2.4-0.2h178.2c8.9,0,16.2,7.3,16.2,16.2L555.8,500.1L555.8,500.1z M539.4,433.4
		c2.5,5.2,3.6,10.4,3.6,17.1c0,10.5-3.3,18.8-10,25.3c-6.3,6.1-14.4,9.7-25.2,11.2c-4.3,0.6-12.7,0.6-17.2,0
		c-17.2-2.3-29.9-10.3-38-24c-1-1.7-1.3-2.3-1-2.5c0.4-0.4,20.8-12.1,21-12.1c0.1,0,0.9,1,1.7,2.2c6.3,9.3,14,13.5,24.5,13.5
		c6.2,0,11.2-1.7,14.3-4.9c0.9-0.9,2-2.3,2.4-3.2c2.1-4.3,1.1-9.9-2.1-13.4c-2.6-2.8-6.8-5.1-18-9.9c-8.2-3.5-12.9-5.8-16.4-7.9
		c-13.7-8.3-19.8-18.7-19.8-33.6c0-10,3.1-17.8,9.6-24.3c6.3-6.3,14.8-9.9,24.9-10.7c3.8-0.3,4.4-0.3,8.4,0
		c8.3,0.6,14.6,2.6,20.5,6.5c3.2,2.1,7.8,6.9,10.4,10.8c1.2,1.8,2.2,3.4,2.2,3.5c0,0.2-19.4,12.8-20.1,13.1c-0.2,0.1-0.8-0.6-1.7-2
		c-0.7-1.1-2.3-3-3.5-4.2c-3.4-3.4-6.7-4.8-11.9-4.8c-4.5,0-7.5,1.1-10,3.9c-1.8,1.9-2.6,3.9-2.8,6.7c-0.2,3.6,0.8,6.6,3.1,9
		c2.4,2.6,6.1,4.6,17.2,9.4c14.6,6.3,21.9,10.6,27.5,16.3C536,427.5,537.7,429.8,539.4,433.4z"/>
</g>
</svg>
