<?xml version="1.0" encoding="utf-8"?>
<!-- Generator: Adobe Illustrator 24.1.1, SVG Export Plug-In . SVG Version: 6.00 Build 0)  -->
<svg version="1.1" id="Capa_1" xmlns="http://www.w3.org/2000/svg" xmlns:xlink="http://www.w3.org/1999/xlink" x="0px" y="0px"
	 viewBox="0 0 512 512" style="enable-background:new 0 0 512 512;" xml:space="preserve">
<style type="text/css">
	.st0{fill:#FFFFFF;}
</style>
<g>
	<g>
		<g>
			<path class="st0" d="M416,176v-64c0-4.3-1.6-8.3-4.6-11.4l-96-96c-3-3-7.1-4.7-11.4-4.6H48C21.5,0,0,21.5,0,48v416
				c0,26.5,21.5,48,48,48h112v-32H48c-8.8,0-16-7.2-16-16V48c0-8.8,7.2-16,16-16h240v64c0,17.7,14.3,32,32,32h64v48H416z"/>
			<path class="st0" d="M208,256h-64c-8.8,0-16,7.2-16,16v144h32v-48h48c17.7,0,32-14.3,32-32v-48C240,270.3,225.7,256,208,256z
				 M208,336h-48v-48h48V336z"/>
			<path class="st0" d="M480,256h-64c-8.8,0-16,7.2-16,16v144h32v-48h48c17.7,0,32-14.3,32-32v-48C512,270.3,497.7,256,480,256z
				 M480,336h-48v-48h48V336z"/>
			<polygon class="st0" points="352,320 288,320 288,256 256,256 256,416 288,416 288,352 352,352 352,416 384,416 384,256 352,256 
							"/>
		</g>
	</g>
</g>
</svg>
