<?xml version="1.0" encoding="utf-8"?>
<!-- Generator: Adobe Illustrator 24.1.1, SVG Export Plug-In . SVG Version: 6.00 Build 0)  -->
<svg version="1.1" id="Capa_1" xmlns="http://www.w3.org/2000/svg" xmlns:xlink="http://www.w3.org/1999/xlink" x="0px" y="0px"
	 viewBox="0 0 512 512" style="enable-background:new 0 0 512 512;" xml:space="preserve">
<style type="text/css">
	.st0{fill:#FFFFFF;}
</style>
<g>
	<g>
		<g>
			<path class="st0" d="M416,176v-64c0-4.3-1.6-8.3-4.6-11.4l-96-96c-3-3-7.1-4.7-11.4-4.6H48C21.5,0,0,21.5,0,48v416
				c0,26.5,21.5,48,48,48h112v-32H48c-8.8,0-16-7.2-16-16V48c0-8.8,7.2-16,16-16h240v64c0,17.7,14.3,32,32,32h64v48H416z"/>
			<path class="st0" d="M144,288h32c8.8,0,16,7.2,16,16h32c0-26.5-21.5-48-48-48h-32c-26.5,0-48,21.5-48,48s21.5,48,48,48h32
				c8.8,0,16,7.2,16,16s-7.2,16-16,16h-32c-8.8,0-16-7.2-16-16H96c0,26.5,21.5,48,48,48h32c26.5,0,48-21.5,48-48s-21.5-48-48-48h-32
				c-8.8,0-16-7.2-16-16S135.2,288,144,288z"/>
			<path class="st0" d="M368,352v-32c0-35.3-28.7-64-64-64s-64,28.7-64,64v32c0,35.3,28.7,64,64,64h80v-32h-25
				C364.8,374.3,367.9,363.3,368,352z M336,352c0,17.7-14.3,32-32,32s-32-14.3-32-32v-32c0-17.7,14.3-32,32-32s32,14.3,32,32V352z"
				/>
			<path class="st0" d="M432,384V256h-32v144c0,8.8,7.2,16,16,16h96v-32H432z"/>
		</g>
	</g>
</g>
</svg>
